<?xml version="1.0" encoding="UTF-8"?>
<!--Generator: Apple Native CoreSVG 175-->
<!DOCTYPE svg
PUBLIC "-//W3C//DTD SVG 1.1//EN"
       "http://www.w3.org/Graphics/SVG/1.1/DTD/svg11.dtd">
<svg version="1.1" xmlns="http://www.w3.org/2000/svg" xmlns:xlink="http://www.w3.org/1999/xlink" width="3300" height="2200">
 <!--glyph: "uni100D71.medium", point size: 100.0, font version: "17.3d3e1", template writer version: "65.1"-->
 <g id="Notes">
  <rect height="2200" id="artboard" style="fill:white;opacity:1" width="3300" x="0" y="0"/>
  <line style="fill:none;stroke:black;opacity:1;stroke-width:0.5;" x1="263" x2="3036" y1="292" y2="292"/>
  <text style="stroke:none;fill:black;font-family:sans-serif;font-size:13;font-weight:bold;" transform="matrix(1 0 0 1 263 322)">Weight/Scale Variations</text>
  <text style="stroke:none;fill:black;font-family:sans-serif;font-size:13;text-anchor:middle;" transform="matrix(1 0 0 1 559.711 322)">Ultralight</text>
  <text style="stroke:none;fill:black;font-family:sans-serif;font-size:13;text-anchor:middle;" transform="matrix(1 0 0 1 856.422 322)">Thin</text>
  <text style="stroke:none;fill:black;font-family:sans-serif;font-size:13;text-anchor:middle;" transform="matrix(1 0 0 1 1153.13 322)">Light</text>
  <text style="stroke:none;fill:black;font-family:sans-serif;font-size:13;text-anchor:middle;" transform="matrix(1 0 0 1 1449.84 322)">Regular</text>
  <text style="stroke:none;fill:black;font-family:sans-serif;font-size:13;text-anchor:middle;" transform="matrix(1 0 0 1 1746.56 322)">Medium</text>
  <text style="stroke:none;fill:black;font-family:sans-serif;font-size:13;text-anchor:middle;" transform="matrix(1 0 0 1 2043.27 322)">Semibold</text>
  <text style="stroke:none;fill:black;font-family:sans-serif;font-size:13;text-anchor:middle;" transform="matrix(1 0 0 1 2339.98 322)">Bold</text>
  <text style="stroke:none;fill:black;font-family:sans-serif;font-size:13;text-anchor:middle;" transform="matrix(1 0 0 1 2636.69 322)">Heavy</text>
  <text style="stroke:none;fill:black;font-family:sans-serif;font-size:13;text-anchor:middle;" transform="matrix(1 0 0 1 2933.4 322)">Black</text>
  <line style="fill:none;stroke:black;opacity:1;stroke-width:0.5;" x1="263" x2="3036" y1="1903" y2="1903"/>
  <g transform="matrix(1 0 0 1 263 1933)">
   <path d="M9.24805 0.830078Q10.8691 0.830078 12.2949 0.214844Q13.7207-0.400391 14.8096-1.49414Q15.8984-2.58789 16.5186-4.01367Q17.1387-5.43945 17.1387-7.05078Q17.1387-8.66211 16.5186-10.0879Q15.8984-11.5137 14.8047-12.6074Q13.7109-13.7012 12.2852-14.3164Q10.8594-14.9316 9.23828-14.9316Q7.62695-14.9316 6.20117-14.3164Q4.77539-13.7012 3.69141-12.6074Q2.60742-11.5137 1.9873-10.0879Q1.36719-8.66211 1.36719-7.05078Q1.36719-5.43945 1.9873-4.01367Q2.60742-2.58789 3.69629-1.49414Q4.78516-0.400391 6.21094 0.214844Q7.63672 0.830078 9.24805 0.830078ZM9.24805-0.654297Q7.91992-0.654297 6.7627-1.14746Q5.60547-1.64062 4.73145-2.51953Q3.85742-3.39844 3.36426-4.56055Q2.87109-5.72266 2.87109-7.05078Q2.87109-8.37891 3.35938-9.54102Q3.84766-10.7031 4.72168-11.582Q5.5957-12.4609 6.75293-12.9541Q7.91016-13.4473 9.23828-13.4473Q10.5762-13.4473 11.7334-12.9541Q12.8906-12.4609 13.7695-11.582Q14.6484-10.7031 15.1465-9.54102Q15.6445-8.37891 15.6445-7.05078Q15.6445-5.72266 15.1514-4.56055Q14.6582-3.39844 13.7842-2.51953Q12.9102-1.64062 11.748-1.14746Q10.5859-0.654297 9.24805-0.654297ZM5.6543-7.05078Q5.6543-6.72852 5.85938-6.52832Q6.06445-6.32812 6.40625-6.32812L8.51562-6.32812L8.51562-4.20898Q8.51562-3.88672 8.71094-3.67676Q8.90625-3.4668 9.23828-3.4668Q9.56055-3.4668 9.77051-3.67676Q9.98047-3.88672 9.98047-4.20898L9.98047-6.32812L12.0898-6.32812Q12.4219-6.32812 12.627-6.52832Q12.832-6.72852 12.832-7.05078Q12.832-7.38281 12.627-7.58789Q12.4219-7.79297 12.0898-7.79297L9.98047-7.79297L9.98047-9.90234Q9.98047-10.2344 9.77051-10.4443Q9.56055-10.6543 9.23828-10.6543Q8.90625-10.6543 8.71094-10.4443Q8.51562-10.2344 8.51562-9.90234L8.51562-7.79297L6.40625-7.79297Q6.06445-7.79297 5.85938-7.58789Q5.6543-7.38281 5.6543-7.05078Z"/>
  </g>
  <g transform="matrix(1 0 0 1 281.867 1933)">
   <path d="M11.709 2.91016Q13.75 2.91016 15.5518 2.12891Q17.3535 1.34766 18.7305-0.0292969Q20.1074-1.40625 20.8887-3.20801Q21.6699-5.00977 21.6699-7.05078Q21.6699-9.0918 20.8887-10.8936Q20.1074-12.6953 18.7305-14.0723Q17.3535-15.4492 15.5469-16.2305Q13.7402-17.0117 11.6992-17.0117Q9.6582-17.0117 7.85645-16.2305Q6.05469-15.4492 4.68262-14.0723Q3.31055-12.6953 2.5293-10.8936Q1.74805-9.0918 1.74805-7.05078Q1.74805-5.00977 2.5293-3.20801Q3.31055-1.40625 4.6875-0.0292969Q6.06445 1.34766 7.86621 2.12891Q9.66797 2.91016 11.709 2.91016ZM11.709 1.25Q9.98047 1.25 8.47656 0.605469Q6.97266-0.0390625 5.83496-1.17676Q4.69727-2.31445 4.05762-3.81836Q3.41797-5.32227 3.41797-7.05078Q3.41797-8.7793 4.05762-10.2832Q4.69727-11.7871 5.83008-12.9297Q6.96289-14.0723 8.4668-14.7119Q9.9707-15.3516 11.6992-15.3516Q13.4277-15.3516 14.9316-14.7119Q16.4355-14.0723 17.5781-12.9297Q18.7207-11.7871 19.3652-10.2832Q20.0098-8.7793 20.0098-7.05078Q20.0098-5.32227 19.3701-3.81836Q18.7305-2.31445 17.5928-1.17676Q16.4551-0.0390625 14.9463 0.605469Q13.4375 1.25 11.709 1.25ZM7.17773-7.05078Q7.17773-6.69922 7.41211-6.47461Q7.64648-6.25 8.01758-6.25L10.8887-6.25L10.8887-3.36914Q10.8887-2.99805 11.1133-2.76855Q11.3379-2.53906 11.6895-2.53906Q12.0605-2.53906 12.29-2.76855Q12.5195-2.99805 12.5195-3.36914L12.5195-6.25L15.4004-6.25Q15.7715-6.25 16.001-6.47461Q16.2305-6.69922 16.2305-7.05078Q16.2305-7.42188 16.001-7.65137Q15.7715-7.88086 15.4004-7.88086L12.5195-7.88086L12.5195-10.752Q12.5195-11.1328 12.29-11.3623Q12.0605-11.5918 11.6895-11.5918Q11.3379-11.5918 11.1133-11.3574Q10.8887-11.123 10.8887-10.752L10.8887-7.88086L8.01758-7.88086Q7.63672-7.88086 7.40723-7.65137Q7.17773-7.42188 7.17773-7.05078Z"/>
  </g>
  <g transform="matrix(1 0 0 1 305.646 1933)">
   <path d="M14.9707 5.66406Q17.0605 5.66406 18.96 5.01465Q20.8594 4.36523 22.4512 3.19336Q24.043 2.02148 25.2197 0.429688Q26.3965-1.16211 27.0459-3.06641Q27.6953-4.9707 27.6953-7.05078Q27.6953-9.14062 27.0459-11.04Q26.3965-12.9395 25.2197-14.5312Q24.043-16.123 22.4512-17.2998Q20.8594-18.4766 18.9551-19.126Q17.0508-19.7754 14.9609-19.7754Q12.8711-19.7754 10.9717-19.126Q9.07227-18.4766 7.48535-17.2998Q5.89844-16.123 4.72168-14.5312Q3.54492-12.9395 2.90039-11.04Q2.25586-9.14062 2.25586-7.05078Q2.25586-4.9707 2.90527-3.06641Q3.55469-1.16211 4.72656 0.429688Q5.89844 2.02148 7.49023 3.19336Q9.08203 4.36523 10.9814 5.01465Q12.8809 5.66406 14.9707 5.66406ZM14.9707 3.84766Q13.1641 3.84766 11.5283 3.2959Q9.89258 2.74414 8.53516 1.74805Q7.17773 0.751953 6.17676-0.610352Q5.17578-1.97266 4.62891-3.6084Q4.08203-5.24414 4.08203-7.05078Q4.08203-8.86719 4.62891-10.5029Q5.17578-12.1387 6.17188-13.501Q7.16797-14.8633 8.52539-15.8594Q9.88281-16.8555 11.5186-17.4023Q13.1543-17.9492 14.9609-17.9492Q16.7773-17.9492 18.4131-17.4023Q20.0488-16.8555 21.4111-15.8594Q22.7734-14.8633 23.7695-13.501Q24.7656-12.1387 25.3174-10.5029Q25.8691-8.86719 25.8691-7.05078Q25.8789-5.24414 25.332-3.6084Q24.7852-1.97266 23.7842-0.610352Q22.7832 0.751953 21.4209 1.74805Q20.0586 2.74414 18.4229 3.2959Q16.7871 3.84766 14.9707 3.84766ZM9.19922-7.05078Q9.19922-6.66992 9.45801-6.4209Q9.7168-6.17188 10.1172-6.17188L14.0625-6.17188L14.0625-2.2168Q14.0625-1.81641 14.3115-1.55762Q14.5605-1.29883 14.9512-1.29883Q15.3516-1.29883 15.6104-1.55273Q15.8691-1.80664 15.8691-2.2168L15.8691-6.17188L19.8242-6.17188Q20.2246-6.17188 20.4785-6.4209Q20.7324-6.66992 20.7324-7.05078Q20.7324-7.46094 20.4785-7.71484Q20.2246-7.96875 19.8242-7.96875L15.8691-7.96875L15.8691-11.9141Q15.8691-12.3242 15.6104-12.583Q15.3516-12.8418 14.9512-12.8418Q14.5605-12.8418 14.3115-12.583Q14.0625-12.3242 14.0625-11.9141L14.0625-7.96875L10.1172-7.96875Q9.70703-7.96875 9.45312-7.71484Q9.19922-7.46094 9.19922-7.05078Z"/>
  </g>
  <text style="stroke:none;fill:black;font-family:sans-serif;font-size:13;font-weight:bold;" transform="matrix(1 0 0 1 263 1953)">Design Variations</text>
  <text style="stroke:none;fill:black;font-family:sans-serif;font-size:13;" transform="matrix(1 0 0 1 263 1971)">Symbols are supported in up to nine weights and three scales.</text>
  <text style="stroke:none;fill:black;font-family:sans-serif;font-size:13;" transform="matrix(1 0 0 1 263 1989)">For optimal layout with text and other symbols, vertically align</text>
  <text style="stroke:none;fill:black;font-family:sans-serif;font-size:13;" transform="matrix(1 0 0 1 263 2007)">symbols with the adjacent text.</text>
  <line style="fill:none;stroke:#00AEEF;stroke-width:0.5;opacity:1.0;" x1="776" x2="776" y1="1919" y2="1933"/>
  <g transform="matrix(1 0 0 1 776 1933)">
   <path d="M3.31055 0.15625Q3.70117 0.15625 3.91602-0.00976562Q4.13086-0.175781 4.26758-0.585938L5.52734-4.0332L11.2891-4.0332L12.5488-0.585938Q12.6855-0.175781 12.9004-0.00976562Q13.1152 0.15625 13.4961 0.15625Q13.8867 0.15625 14.1162-0.0585938Q14.3457-0.273438 14.3457-0.644531Q14.3457-0.869141 14.2383-1.17188L9.6582-13.3691Q9.48242-13.8184 9.17969-14.043Q8.87695-14.2676 8.4082-14.2676Q7.5-14.2676 7.17773-13.3789L2.59766-1.16211Q2.49023-0.859375 2.49023-0.634766Q2.49023-0.263672 2.70996-0.0537109Q2.92969 0.15625 3.31055 0.15625ZM6.00586-5.51758L8.37891-12.0898L8.42773-12.0898L10.8008-5.51758Z"/>
  </g>
  <line style="fill:none;stroke:#00AEEF;stroke-width:0.5;opacity:1.0;" x1="793.197" x2="793.197" y1="1919" y2="1933"/>
  <text style="stroke:none;fill:black;font-family:sans-serif;font-size:13;font-weight:bold;" transform="matrix(1 0 0 1 776 1953)">Margins</text>
  <text style="stroke:none;fill:black;font-family:sans-serif;font-size:13;" transform="matrix(1 0 0 1 776 1971)">Leading and trailing margins on the left and right side of each symbol</text>
  <text style="stroke:none;fill:black;font-family:sans-serif;font-size:13;" transform="matrix(1 0 0 1 776 1989)">can be adjusted by modifying the x-location of the margin guidelines.</text>
  <text style="stroke:none;fill:black;font-family:sans-serif;font-size:13;" transform="matrix(1 0 0 1 776 2007)">Modifications are automatically applied proportionally to all</text>
  <text style="stroke:none;fill:black;font-family:sans-serif;font-size:13;" transform="matrix(1 0 0 1 776 2025)">scales and weights.</text>
  <g transform="matrix(1 0 0 1 1289 1933)">
   <path d="M2.8418 1.86523L4.54102 3.57422Q5.18555 4.22852 5.90332 4.17969Q6.62109 4.13086 7.31445 3.35938L18.0078-8.42773L17.041-9.4043L6.42578 2.27539Q6.16211 2.57812 5.89355 2.61719Q5.625 2.65625 5.27344 2.30469L4.10156 1.14258Q3.75 0.791016 3.79395 0.522461Q3.83789 0.253906 4.14062-0.0195312L15.6152-10.8203L14.6387-11.7871L3.04688-0.898438Q2.30469-0.214844 2.25098 0.498047Q2.19727 1.21094 2.8418 1.86523ZM9.25781-16.3281Q8.94531-16.0254 8.90625-15.6348Q8.86719-15.2441 9.04297-14.9512Q9.21875-14.6777 9.55566-14.541Q9.89258-14.4043 10.3809-14.5215Q11.4746-14.7754 12.5977-14.7314Q13.7207-14.6875 14.7949-13.9844L14.209-12.5293Q13.9551-11.9043 14.0674-11.4404Q14.1797-10.9766 14.5801-10.5664L16.875-8.25195Q17.2363-7.88086 17.5781-7.82227Q17.9199-7.76367 18.3398-7.8418L19.4043-8.03711L20.0684-7.36328L20.0293-6.80664Q20-6.43555 20.1221-6.12305Q20.2441-5.81055 20.6055-5.44922L21.3672-4.70703Q21.7285-4.3457 22.1533-4.33105Q22.5781-4.31641 22.9297-4.66797L25.8398-7.58789Q26.1914-7.93945 26.1816-8.35449Q26.1719-8.76953 25.8105-9.13086L25.0391-9.89258Q24.6875-10.2539 24.3799-10.3857Q24.0723-10.5176 23.7109-10.4883L23.1348-10.4395L22.4902-11.0742L22.7344-12.1973Q22.832-12.6172 22.6953-12.9834Q22.5586-13.3496 22.1191-13.7891L19.9219-15.9766Q18.6719-17.2168 17.2607-17.8369Q15.8496-18.457 14.4189-18.4814Q12.9883-18.5059 11.665-17.959Q10.3418-17.4121 9.25781-16.3281ZM10.752-15.957Q11.6602-16.6211 12.7002-16.9043Q13.7402-17.1875 14.8047-17.085Q15.8691-16.9824 16.8701-16.5137Q17.8711-16.0449 18.7012-15.2051L21.1328-12.793Q21.3086-12.6172 21.3525-12.4512Q21.3965-12.2852 21.3379-12.0312L21.0156-10.5469L22.5195-9.0625L23.5059-9.12109Q23.6914-9.13086 23.7891-9.09668Q23.8867-9.0625 24.0332-8.91602L24.6094-8.33984L22.168-5.89844L21.5918-6.47461Q21.4453-6.62109 21.4062-6.71875Q21.3672-6.81641 21.377-7.01172L21.4453-7.98828L19.9512-9.47266L18.4277-9.21875Q18.1836-9.16992 18.042-9.2041Q17.9004-9.23828 17.7148-9.41406L15.7129-11.416Q15.5176-11.5918 15.4932-11.7529Q15.4688-11.9141 15.5859-12.1875L16.4648-14.2773Q15.293-15.3711 13.8281-15.791Q12.3633-16.2109 10.8398-15.7617Q10.7227-15.7324 10.6885-15.8057Q10.6543-15.8789 10.752-15.957Z"/>
  </g>
  <text style="stroke:none;fill:black;font-family:sans-serif;font-size:13;font-weight:bold;" transform="matrix(1 0 0 1 1289 1953)">Exporting</text>
  <text style="stroke:none;fill:black;font-family:sans-serif;font-size:13;" transform="matrix(1 0 0 1 1289 1971)">Symbols should be outlined when exporting to ensure the</text>
  <text style="stroke:none;fill:black;font-family:sans-serif;font-size:13;" transform="matrix(1 0 0 1 1289 1989)">design is preserved when submitting to Xcode.</text>
  <text id="template-version" style="stroke:none;fill:black;font-family:sans-serif;font-size:13;text-anchor:end;" transform="matrix(1 0 0 1 3036 1933)">Template v.3.0</text>
  <text style="stroke:none;fill:black;font-family:sans-serif;font-size:13;text-anchor:end;" transform="matrix(1 0 0 1 3036 1951)">Requires Xcode 13 or greater</text>
  <text id="descriptive-name" style="stroke:none;fill:black;font-family:sans-serif;font-size:13;text-anchor:end;" transform="matrix(1 0 0 1 3036 1969)">Generated from globe.americas</text>
  <text style="stroke:none;fill:black;font-family:sans-serif;font-size:13;text-anchor:end;" transform="matrix(1 0 0 1 3036 1987)">Typeset at 100 points</text>
  <text style="stroke:none;fill:black;font-family:sans-serif;font-size:13;" transform="matrix(1 0 0 1 263 726)">Small</text>
  <text style="stroke:none;fill:black;font-family:sans-serif;font-size:13;" transform="matrix(1 0 0 1 263 1156)">Medium</text>
  <text style="stroke:none;fill:black;font-family:sans-serif;font-size:13;" transform="matrix(1 0 0 1 263 1586)">Large</text>
 </g>
 <g id="Guides">
  <g id="H-reference" style="fill:#27AAE1;stroke:none;" transform="matrix(1 0 0 1 339 696)">
   <path d="M0.993347 0L3.6377 0L29.3282-67.1326L30.0301-67.1326L30.0301-70.459L28.1227-70.459ZM11.6882-24.4797L46.9818-24.4797L46.2311-26.7288L12.4382-26.7288ZM55.1193 0L57.7637 0L30.6381-70.459L29.4327-70.459L29.4327-67.1326Z"/>
  </g>
  <line id="Baseline-S" style="fill:none;stroke:#27AAE1;opacity:1;stroke-width:0.5;" x1="263" x2="3036" y1="696" y2="696"/>
  <line id="Capline-S" style="fill:none;stroke:#27AAE1;opacity:1;stroke-width:0.5;" x1="263" x2="3036" y1="625.541" y2="625.541"/>
  <g id="H-reference" style="fill:#27AAE1;stroke:none;" transform="matrix(1 0 0 1 339 1126)">
   <path d="M0.993347 0L3.6377 0L29.3282-67.1326L30.0301-67.1326L30.0301-70.459L28.1227-70.459ZM11.6882-24.4797L46.9818-24.4797L46.2311-26.7288L12.4382-26.7288ZM55.1193 0L57.7637 0L30.6381-70.459L29.4327-70.459L29.4327-67.1326Z"/>
  </g>
  <line id="Baseline-M" style="fill:none;stroke:#27AAE1;opacity:1;stroke-width:0.5;" x1="263" x2="3036" y1="1126" y2="1126"/>
  <line id="Capline-M" style="fill:none;stroke:#27AAE1;opacity:1;stroke-width:0.5;" x1="263" x2="3036" y1="1055.54" y2="1055.54"/>
  <g id="H-reference" style="fill:#27AAE1;stroke:none;" transform="matrix(1 0 0 1 339 1556)">
   <path d="M0.993347 0L3.6377 0L29.3282-67.1326L30.0301-67.1326L30.0301-70.459L28.1227-70.459ZM11.6882-24.4797L46.9818-24.4797L46.2311-26.7288L12.4382-26.7288ZM55.1193 0L57.7637 0L30.6381-70.459L29.4327-70.459L29.4327-67.1326Z"/>
  </g>
  <line id="Baseline-L" style="fill:none;stroke:#27AAE1;opacity:1;stroke-width:0.5;" x1="263" x2="3036" y1="1556" y2="1556"/>
  <line id="Capline-L" style="fill:none;stroke:#27AAE1;opacity:1;stroke-width:0.5;" x1="263" x2="3036" y1="1485.54" y2="1485.54"/>
  <line id="left-margin-Ultralight-S" style="fill:none;stroke:#00AEEF;stroke-width:0.5;opacity:1.0;" x1="515.649" x2="515.649" y1="600.785" y2="720.121"/>
  <line id="right-margin-Ultralight-S" style="fill:none;stroke:#00AEEF;stroke-width:0.5;opacity:1.0;" x1="603.773" x2="603.773" y1="600.785" y2="720.121"/>
  <line id="left-margin-Regular-S" style="fill:none;stroke:#00AEEF;stroke-width:0.5;opacity:1.0;" x1="1403.58" x2="1403.58" y1="600.785" y2="720.121"/>
  <line id="right-margin-Regular-S" style="fill:none;stroke:#00AEEF;stroke-width:0.5;opacity:1.0;" x1="1496.11" x2="1496.11" y1="600.785" y2="720.121"/>
  <line id="left-margin-Black-S" style="fill:none;stroke:#00AEEF;stroke-width:0.5;opacity:1.0;" x1="2884.57" x2="2884.57" y1="600.785" y2="720.121"/>
  <line id="right-margin-Black-S" style="fill:none;stroke:#00AEEF;stroke-width:0.5;opacity:1.0;" x1="2982.23" x2="2982.23" y1="600.785" y2="720.121"/>
 </g>
 <g id="Symbols">
  <g id="Black-S" transform="matrix(1 0 0 1 2884.57 696)">
   <path d="M49.707-7.22656Q51.416-7.22656 53.8818-9.10645Q56.3477-10.9863 59.0088-13.9648Q61.6699-16.9434 63.9648-20.3613Q66.2598-23.7793 67.7002-26.9775Q69.1406-30.1758 69.1406-32.373Q69.1406-34.082 67.8711-36.0352Q66.6016-37.9883 64.624-39.7461Q62.6465-41.5039 60.4004-42.6025Q58.1543-43.7012 56.25-43.7012Q55.0781-43.7012 53.7598-43.042Q52.4414-42.3828 51.2695-41.7236Q50.0977-41.0645 49.3652-41.0645Q48.7305-41.0645 47.1191-42.2363Q45.5078-43.4082 44.0918-44.7266Q42.6758-46.0449 42.6758-46.4844Q42.6758-46.5332 42.9688-46.7041Q43.2617-46.875 43.4082-46.875Q43.75-46.875 44.9707-46.0205Q46.1914-45.166 47.7295-44.3115Q49.2676-43.457 50.3906-43.457Q53.0762-43.457 54.7119-45.1172Q56.3477-46.7773 56.3477-49.5117Q56.3477-51.1719 55.3223-52.6855Q56.9336-53.5645 58.9111-54.7363Q60.8887-55.9082 62.8174-57.3486Q64.7461-58.7891 66.333-60.4736Q67.9199-62.1582 68.7012-64.0625L63.8672-66.4062Q63.2324-64.7949 61.5723-63.2568Q59.9121-61.7188 57.7637-60.376Q55.6152-59.0332 53.4668-57.9102Q51.3184-56.7871 49.707-55.957Q48.6816-55.4688 48.4619-54.4434Q48.2422-53.418 48.9258-52.3926Q50.1953-50.5859 50.5615-49.9756Q50.9277-49.3652 50.9277-49.0723Q50.9277-48.9746 50.8789-48.9014Q50.8301-48.8281 50.7324-48.8281Q50.293-48.8281 48.999-49.707Q47.7051-50.5859 46.167-51.4404Q44.6289-52.2949 43.4082-52.2949Q41.1621-52.2949 39.209-50.4395Q37.2559-48.584 37.2559-46.4844Q37.2559-45.1172 38.5498-43.2617Q39.8438-41.4062 41.7725-39.6729Q43.7012-37.9395 45.7764-36.792Q47.8516-35.6445 49.3652-35.6445Q50.4395-35.6445 52.002-36.3037Q53.5645-36.9629 54.8096-37.6221Q56.0547-38.2812 56.25-38.2812Q56.9824-38.2812 58.2031-37.5732Q59.4238-36.8652 60.7178-35.8643Q62.0117-34.8633 62.8906-33.8867Q63.7695-32.9102 63.7695-32.373Q63.7695-31.25 62.5977-28.9307Q61.4258-26.6113 59.5947-23.8281Q57.7637-21.0449 55.7617-18.4814Q53.7598-15.918 52.124-14.2578Q50.4883-12.5977 49.707-12.5977Q49.5117-12.5977 48.999-12.8662Q48.4863-13.1348 48.4863-13.2324Q48.4863-13.4766 48.584-13.7695Q48.6816-14.0625 49.0234-14.9902Q49.2676-15.8691 49.6094-17.1143Q49.9512-18.3594 49.9023-19.8242Q49.8535-21.9727 48.1445-23.6816Q46.4355-25.3906 43.2617-27.6367Q42.6758-28.0273 42.0898-28.4668Q41.5039-28.9062 40.8691-29.3457Q39.5996-30.2734 39.5996-31.2012Q39.5996-31.8359 40.0391-33.1055Q40.332-34.1797 40.4785-34.8877Q40.625-35.5957 40.625-36.084Q40.625-37.4512 39.9658-38.5498Q39.3066-39.6484 37.6465-41.0645Q37.4512-41.1621 37.3291-41.3086Q37.207-41.4551 37.0605-41.5527L31.1523-46.7773Q27.9785-49.6094 27.2705-52.0508Q26.5625-54.4922 27.4902-56.8359Q28.418-59.1797 30.0781-61.7188L24.707-62.793Q22.4121-59.2773 21.9971-55.7373Q21.582-52.1973 22.998-48.9258Q24.4141-45.6543 27.5879-42.7734L33.4473-37.5488Q34.1797-36.9141 34.5947-36.5479Q35.0098-36.1816 35.2051-36.0352Q35.1562-35.498 34.668-34.2529Q34.1797-33.0078 34.1797-31.2012Q34.1797-27.7344 37.6465-25Q40.5273-22.9004 42.5293-21.4355Q44.5312-19.9707 44.5312-19.7266Q44.5312-18.2617 43.8232-16.7236Q43.1152-15.1855 43.1152-13.0859Q43.1152-10.9375 45.1904-9.08203Q47.2656-7.22656 49.707-7.22656ZM48.8281 6.78711Q57.5195 6.78711 65.1123 3.51562Q72.7051 0.244141 78.4912-5.54199Q84.2773-11.3281 87.5488-18.9209Q90.8203-26.5137 90.8203-35.2051Q90.8203-43.8965 87.5488-51.4893Q84.2773-59.082 78.4912-64.8682Q72.7051-70.6543 65.1123-73.9258Q57.5195-77.1973 48.8281-77.1973Q40.1367-77.1973 32.5439-73.9258Q24.9512-70.6543 19.165-64.8682Q13.3789-59.082 10.1074-51.4893Q6.83594-43.8965 6.83594-35.2051Q6.83594-26.5137 10.1074-18.9209Q13.3789-11.3281 19.165-5.54199Q24.9512 0.244141 32.5439 3.51562Q40.1367 6.78711 48.8281 6.78711ZM48.8281-3.95508Q42.3828-3.95508 36.7188-6.39648Q31.0547-8.83789 26.7578-13.1348Q22.4609-17.4316 20.0195-23.0957Q17.5781-28.7598 17.5781-35.2051Q17.5781-41.6504 20.0195-47.3145Q22.4609-52.9785 26.7578-57.2754Q31.0547-61.5723 36.7188-64.0137Q42.3828-66.4551 48.8281-66.4551Q55.2734-66.4551 60.9375-64.0137Q66.6016-61.5723 70.8984-57.2754Q75.1953-52.9785 77.6367-47.3145Q80.0781-41.6504 80.0781-35.2051Q80.0781-28.7598 77.6367-23.0957Q75.1953-17.4316 70.8984-13.1348Q66.6016-8.83789 60.9375-6.39648Q55.2734-3.95508 48.8281-3.95508Z"/>
  </g>
  <g id="Regular-S" transform="matrix(1 0 0 1 1403.58 696)">
   <path d="M47.8516-4.44336Q49.5605-4.44336 52.0264-6.37207Q54.4922-8.30078 57.1777-11.377Q59.8633-14.4531 62.1826-17.9443Q64.502-21.4355 65.9668-24.6338Q67.4316-27.832 67.4316-29.9805Q67.4316-31.5918 65.9912-33.667Q64.5508-35.7422 62.3779-37.6465Q60.2051-39.5508 57.8613-40.7959Q55.5176-42.041 53.6621-42.041Q52.5391-42.041 51.2207-41.3574Q49.9023-40.6738 48.6572-40.0146Q47.4121-39.3555 46.4844-39.3555Q45.7031-39.3555 44.1162-40.3809Q42.5293-41.4062 41.2109-42.6758Q39.8926-43.9453 39.8926-44.6289Q39.8926-44.9707 40.3809-45.3369Q40.8691-45.7031 41.3086-45.7031Q41.7969-45.7031 43.1152-44.8242Q44.4336-43.9453 45.9717-43.042Q47.5098-42.1387 48.584-42.1387Q51.123-42.1387 52.6123-43.6768Q54.1016-45.2148 54.1016-47.8027Q54.1016-49.3652 52.7344-51.3672Q54.3457-52.1973 56.3721-53.3447Q58.3984-54.4922 60.4248-55.957Q62.4512-57.4219 64.1602-59.1064Q65.8691-60.791 66.7969-62.6953L62.9883-64.5996Q62.1582-62.8906 60.376-61.3281Q58.5938-59.7656 56.3721-58.3984Q54.1504-57.0312 52.002-55.8838Q49.8535-54.7363 48.2422-53.9062Q47.5098-53.5645 47.2412-52.8076Q46.9727-52.0508 47.6074-51.1719Q48.7793-49.5605 49.3164-48.7305Q49.8535-47.9004 49.8535-47.3145Q49.8535-46.9238 49.585-46.6797Q49.3164-46.4355 48.9258-46.4355Q48.3398-46.4355 46.9482-47.3145Q45.5566-48.1934 43.9941-49.0967Q42.4316-50 41.3086-50Q39.3066-50 37.4756-48.2666Q35.6445-46.5332 35.6445-44.6289Q35.6445-43.2617 36.792-41.626Q37.9395-39.9902 39.6973-38.4766Q41.4551-36.9629 43.2861-36.0107Q45.1172-35.0586 46.4844-35.0586Q47.5586-35.0586 49.0234-35.7422Q50.4883-36.4258 51.7822-37.1094Q53.0762-37.793 53.6621-37.793Q54.5898-37.793 56.1523-36.8652Q57.7148-35.9375 59.3262-34.5947Q60.9375-33.252 62.0605-31.9824Q63.1836-30.7129 63.1836-29.9805Q63.1836-28.6621 61.9141-26.123Q60.6445-23.584 58.667-20.6055Q56.6895-17.627 54.541-14.917Q52.3926-12.207 50.5371-10.4736Q48.6816-8.74023 47.7539-8.74023Q47.1191-8.74023 46.5332-9.17969Q45.9473-9.61914 45.9473-10.0586Q45.9473-10.4004 46.0449-10.7422Q46.1426-11.084 46.4844-12.0605Q46.7773-12.9883 47.1191-14.2334Q47.4609-15.4785 47.4121-16.8945Q47.3633-18.8965 45.7275-20.5078Q44.0918-22.1191 40.8203-24.4629Q40.1855-24.9023 39.5508-25.3418Q38.916-25.7812 38.3301-26.2695Q36.6699-27.4902 36.6699-28.7598Q36.6699-29.3945 37.1582-30.9082Q37.4023-31.7871 37.5732-32.5439Q37.7441-33.3008 37.7441-33.8379Q37.7441-35.2051 37.0361-36.2305Q36.3281-37.2559 34.9609-38.4277Q34.7656-38.5742 34.5947-38.7207Q34.4238-38.8672 34.2773-39.0137L28.125-44.4824Q24.2676-47.9492 22.8516-50.5371Q21.4355-53.125 21.8506-55.3467Q22.2656-57.5684 23.8281-60.1074L19.6777-60.9375Q18.1152-58.4473 17.627-55.4932Q17.1387-52.5391 18.7988-49.0234Q20.459-45.5078 25.293-41.2598L31.3965-35.8887Q32.4707-34.9609 32.9834-34.4971Q33.4961-34.0332 33.4961-33.6914Q33.4961-33.1543 32.959-31.8604Q32.4219-30.5664 32.4219-28.7598Q32.4219-25.3418 35.7422-22.8516Q38.916-20.459 41.04-18.9453Q43.1641-17.4316 43.1641-16.7969Q43.1641-15.0879 42.4316-13.5254Q41.6992-11.9629 41.6992-9.91211Q41.6992-7.86133 43.7012-6.15234Q45.7031-4.44336 47.8516-4.44336ZM46.2402 4.15039Q54.3457 4.15039 61.4746 1.07422Q68.6035-2.00195 74.0479-7.4707Q79.4922-12.9395 82.5928-20.0684Q85.6934-27.1973 85.6934-35.2539Q85.6934-43.3105 82.5928-50.4395Q79.4922-57.5684 74.0234-63.0371Q68.5547-68.5059 61.4258-71.582Q54.2969-74.6582 46.1914-74.6582Q38.1348-74.6582 31.0059-71.582Q23.877-68.5059 18.457-63.0371Q13.0371-57.5684 9.93652-50.4395Q6.83594-43.3105 6.83594-35.2539Q6.83594-27.1973 9.93652-20.0684Q13.0371-12.9395 18.4814-7.4707Q23.9258-2.00195 31.0547 1.07422Q38.1836 4.15039 46.2402 4.15039ZM46.2402-1.70898Q39.4043-1.70898 33.3496-4.3457Q27.2949-6.98242 22.6562-11.6211Q18.0176-16.2598 15.3809-22.3389Q12.7441-28.418 12.7441-35.2539Q12.7441-42.0898 15.3564-48.1689Q17.9688-54.248 22.6074-58.8867Q27.2461-63.5254 33.3008-66.1621Q39.3555-68.7988 46.1914-68.7988Q53.0762-68.7988 59.1309-66.1621Q65.1855-63.5254 69.8486-58.8867Q74.5117-54.248 77.1484-48.1689Q79.7852-42.0898 79.7852-35.2539Q79.7852-28.418 77.1484-22.3389Q74.5117-16.2598 69.873-11.6211Q65.2344-6.98242 59.1797-4.3457Q53.125-1.70898 46.2402-1.70898Z"/>
  </g>
  <g id="Ultralight-S" transform="matrix(1 0 0 1 515.649 696)">
   <path d="M45.6718-5.57861Q47.1535-5.57861 49.4377-7.43904Q51.722-9.29947 54.2713-12.2623Q56.8207-15.2252 59.0492-18.5802Q61.2778-21.9353 62.6972-24.9744Q64.1167-28.0136 64.1167-29.9805Q64.1167-31.3644 62.7899-33.2355Q61.4632-35.1067 59.4265-36.8748Q57.3898-38.6429 55.2277-39.7972Q53.0655-40.9515 51.4824-40.9515Q50.5409-40.9515 49.2908-40.2679Q48.0408-39.5844 46.7274-38.9023Q45.414-38.2202 44.3047-38.2202Q43.1602-38.2202 41.3235-39.4047Q39.4867-40.5891 38.0322-42.1082Q36.5776-43.6272 36.5776-44.6289Q36.5776-45.4704 37.429-46.1544Q38.2805-46.8384 39.1289-46.8384Q39.9353-46.8384 41.2083-45.9366Q42.4812-45.0348 43.8602-44.1544Q45.2393-43.2739 46.4043-43.2739Q48.4436-43.2739 49.6151-44.4714Q50.7866-45.6688 50.7866-47.8027Q50.7866-49.2744 48.9197-51.7761Q50.531-52.6062 52.8301-53.867Q55.1292-55.1277 57.4959-56.797Q59.8625-58.4663 61.7081-60.4233Q63.5536-62.3802 64.2082-64.6027L62.3978-65.8714Q62.0216-63.7535 60.2394-61.8279Q58.4572-59.9022 55.9406-58.2397Q53.4241-56.5773 50.8896-55.2254Q48.3551-53.8734 46.5164-52.9526Q46.1929-52.7473 46.106-52.4673Q46.019-52.1873 46.2906-51.8074Q47.5983-50.0145 48.1583-49.0711Q48.7183-48.1277 48.7183-47.3145Q48.7183-46.4699 48.1319-45.8851Q47.5456-45.3003 46.7461-45.3003Q45.8878-45.3003 44.4508-46.2021Q43.0138-47.1039 41.5421-47.9843Q40.0703-48.8647 39.1289-48.8647Q37.5809-48.8647 36.0451-47.472Q34.5093-46.0793 34.5093-44.6289Q34.5093-43.5341 35.5659-42.1028Q36.6226-40.6715 38.1989-39.3166Q39.7751-37.9616 41.4246-37.0777Q43.074-36.1938 44.3047-36.1938Q45.4247-36.1938 46.8441-36.8774Q48.2635-37.561 49.5346-38.2446Q50.8057-38.9282 51.4824-38.9282Q52.5917-38.9282 54.3587-37.9097Q56.1256-36.8912 57.8957-35.4122Q59.6657-33.9333 60.857-32.4368Q62.0483-30.9402 62.0483-29.9805Q62.0483-28.4805 60.7559-25.7599Q59.4635-23.0392 57.4181-19.9471Q55.3726-16.8549 53.088-14.0316Q50.8034-11.2083 48.8117-9.40666Q46.8201-7.60498 45.665-7.60498Q44.7121-7.60498 43.6722-8.33969Q42.6323-9.0744 42.6323-10.0586Q42.6323-10.4462 42.7753-10.9241Q42.9184-11.4021 43.2152-12.4237Q43.5081-13.3514 43.8271-14.4833Q44.146-15.6151 44.0971-16.8488Q44.0941-18.261 42.844-19.6224Q41.5939-20.9839 38.0051-23.6Q37.3703-24.0395 36.7126-24.4789Q36.055-24.9184 35.4691-25.4066Q33.3549-26.9455 33.3549-28.7598Q33.3549-29.5761 33.889-31.2263Q34.1782-32.196 34.3037-32.8392Q34.4292-33.4824 34.4292-33.8379Q34.4292-34.7961 33.9256-35.6174Q33.4221-36.4388 32.0549-37.6106Q31.8596-37.7571 31.6887-37.9036Q31.5178-38.0501 31.3713-38.1966L25.219-43.6653Q21.7697-46.6774 20.0813-49.538Q18.3929-52.3987 18.3311-55.1426Q18.2693-57.8865 19.7411-60.6071L17.8162-61.0283Q16.2079-58.1749 16.3101-55.0392Q16.4124-51.9035 18.2766-48.6374Q20.1408-45.3712 23.8396-42.0769L29.8981-36.7058Q31.0173-35.733 31.6891-35.133Q32.3608-34.5329 32.3608-33.828Q32.3608-32.9727 31.8237-31.6559Q31.2866-30.3391 31.2866-28.7598Q31.2866-25.9323 34.198-23.7144Q38.3255-20.6406 40.1772-19.3085Q42.0288-17.9764 42.0288-16.7969Q42.0746-14.8605 41.3193-13.2755Q40.564-11.6905 40.564-9.91211Q40.564-8.40607 42.2253-6.99234Q43.8866-5.57861 45.6718-5.57861ZM44.0605 1.97067Q51.757 1.97067 58.4774-0.92392Q65.1978-3.81851 70.3468-8.9695Q75.4959-14.1205 78.3924-20.8405Q81.2889-27.5604 81.2889-35.2539Q81.2889-42.9474 78.3924-49.6674Q75.4959-56.3873 70.3453-61.5383Q65.1947-66.6893 58.4743-69.5839Q51.754-72.4785 44.0575-72.4785Q36.364-72.4785 29.6211-69.5839Q22.8783-66.6893 17.7532-61.5383Q12.6282-56.3873 9.73206-49.6674Q6.83594-42.9474 6.83594-35.2539Q6.83594-27.5604 9.73206-20.8405Q12.6282-14.1205 17.7547-8.9695Q22.8813-3.81851 29.6242-0.92392Q36.367 1.97067 44.0605 1.97067ZM44.0605-0.164795Q36.8156-0.164795 30.4661-2.8923Q24.1165-5.61981 19.2734-10.463Q14.4302-15.3061 11.7027-21.6576Q8.97522-28.009 8.97522-35.2539Q8.97522-42.4988 11.7008-48.8503Q14.4264-55.2017 19.2696-60.0449Q24.1127-64.888 30.4626-67.6155Q36.8126-70.343 44.0575-70.343Q51.3054-70.343 57.655-67.6155Q64.0045-64.888 68.8496-60.0449Q73.6946-55.2017 76.4221-48.8503Q79.1496-42.4988 79.1496-35.2539Q79.1496-28.009 76.4221-21.6576Q73.6946-15.3061 68.8515-10.463Q64.0083-5.61981 57.6584-2.8923Q51.3084-0.164795 44.0605-0.164795Z"/>
  </g>
 </g>
</svg>
