<?xml version="1.0" encoding="UTF-8"?>
<!--Generator: Apple Native CoreSVG 175-->
<!DOCTYPE svg
PUBLIC "-//W3C//DTD SVG 1.1//EN"
       "http://www.w3.org/Graphics/SVG/1.1/DTD/svg11.dtd">
<svg version="1.1" xmlns="http://www.w3.org/2000/svg" xmlns:xlink="http://www.w3.org/1999/xlink" width="3300" height="2200">
 <!--glyph: "uni10074A.medium", point size: 100.0, font version: "17.3d3e1", template writer version: "65.1"-->
 <style>.hierarchical-0:primary {fill:#212121}
.hierarchical-1:secondary {fill:#4D4D4D}

.SFSymbolsPreview212121 {fill:#212121;opacity:1.0}
.SFSymbolsPreview4D4D4D {fill:#4D4D4D;opacity:1.0}
</style>
 <g id="Notes">
  <rect height="2200" id="artboard" style="fill:white;opacity:1" width="3300" x="0" y="0"/>
  <line style="fill:none;stroke:black;opacity:1;stroke-width:0.5;" x1="263" x2="3036" y1="292" y2="292"/>
  <text style="stroke:none;fill:black;font-family:sans-serif;font-size:13;font-weight:bold;" transform="matrix(1 0 0 1 263 322)">Weight/Scale Variations</text>
  <text style="stroke:none;fill:black;font-family:sans-serif;font-size:13;text-anchor:middle;" transform="matrix(1 0 0 1 559.711 322)">Ultralight</text>
  <text style="stroke:none;fill:black;font-family:sans-serif;font-size:13;text-anchor:middle;" transform="matrix(1 0 0 1 856.422 322)">Thin</text>
  <text style="stroke:none;fill:black;font-family:sans-serif;font-size:13;text-anchor:middle;" transform="matrix(1 0 0 1 1153.13 322)">Light</text>
  <text style="stroke:none;fill:black;font-family:sans-serif;font-size:13;text-anchor:middle;" transform="matrix(1 0 0 1 1449.84 322)">Regular</text>
  <text style="stroke:none;fill:black;font-family:sans-serif;font-size:13;text-anchor:middle;" transform="matrix(1 0 0 1 1746.56 322)">Medium</text>
  <text style="stroke:none;fill:black;font-family:sans-serif;font-size:13;text-anchor:middle;" transform="matrix(1 0 0 1 2043.27 322)">Semibold</text>
  <text style="stroke:none;fill:black;font-family:sans-serif;font-size:13;text-anchor:middle;" transform="matrix(1 0 0 1 2339.98 322)">Bold</text>
  <text style="stroke:none;fill:black;font-family:sans-serif;font-size:13;text-anchor:middle;" transform="matrix(1 0 0 1 2636.69 322)">Heavy</text>
  <text style="stroke:none;fill:black;font-family:sans-serif;font-size:13;text-anchor:middle;" transform="matrix(1 0 0 1 2933.4 322)">Black</text>
  <line style="fill:none;stroke:black;opacity:1;stroke-width:0.5;" x1="263" x2="3036" y1="1903" y2="1903"/>
  <g transform="matrix(1 0 0 1 263 1933)">
   <path d="M9.24805 0.830078Q10.8691 0.830078 12.2949 0.214844Q13.7207-0.400391 14.8096-1.49414Q15.8984-2.58789 16.5186-4.01367Q17.1387-5.43945 17.1387-7.05078Q17.1387-8.66211 16.5186-10.0879Q15.8984-11.5137 14.8047-12.6074Q13.7109-13.7012 12.2852-14.3164Q10.8594-14.9316 9.23828-14.9316Q7.62695-14.9316 6.20117-14.3164Q4.77539-13.7012 3.69141-12.6074Q2.60742-11.5137 1.9873-10.0879Q1.36719-8.66211 1.36719-7.05078Q1.36719-5.43945 1.9873-4.01367Q2.60742-2.58789 3.69629-1.49414Q4.78516-0.400391 6.21094 0.214844Q7.63672 0.830078 9.24805 0.830078ZM9.24805-0.654297Q7.91992-0.654297 6.7627-1.14746Q5.60547-1.64062 4.73145-2.51953Q3.85742-3.39844 3.36426-4.56055Q2.87109-5.72266 2.87109-7.05078Q2.87109-8.37891 3.35938-9.54102Q3.84766-10.7031 4.72168-11.582Q5.5957-12.4609 6.75293-12.9541Q7.91016-13.4473 9.23828-13.4473Q10.5762-13.4473 11.7334-12.9541Q12.8906-12.4609 13.7695-11.582Q14.6484-10.7031 15.1465-9.54102Q15.6445-8.37891 15.6445-7.05078Q15.6445-5.72266 15.1514-4.56055Q14.6582-3.39844 13.7842-2.51953Q12.9102-1.64062 11.748-1.14746Q10.5859-0.654297 9.24805-0.654297ZM5.6543-7.05078Q5.6543-6.72852 5.85938-6.52832Q6.06445-6.32812 6.40625-6.32812L8.51562-6.32812L8.51562-4.20898Q8.51562-3.88672 8.71094-3.67676Q8.90625-3.4668 9.23828-3.4668Q9.56055-3.4668 9.77051-3.67676Q9.98047-3.88672 9.98047-4.20898L9.98047-6.32812L12.0898-6.32812Q12.4219-6.32812 12.627-6.52832Q12.832-6.72852 12.832-7.05078Q12.832-7.38281 12.627-7.58789Q12.4219-7.79297 12.0898-7.79297L9.98047-7.79297L9.98047-9.90234Q9.98047-10.2344 9.77051-10.4443Q9.56055-10.6543 9.23828-10.6543Q8.90625-10.6543 8.71094-10.4443Q8.51562-10.2344 8.51562-9.90234L8.51562-7.79297L6.40625-7.79297Q6.06445-7.79297 5.85938-7.58789Q5.6543-7.38281 5.6543-7.05078Z"/>
  </g>
  <g transform="matrix(1 0 0 1 281.867 1933)">
   <path d="M11.709 2.91016Q13.75 2.91016 15.5518 2.12891Q17.3535 1.34766 18.7305-0.0292969Q20.1074-1.40625 20.8887-3.20801Q21.6699-5.00977 21.6699-7.05078Q21.6699-9.0918 20.8887-10.8936Q20.1074-12.6953 18.7305-14.0723Q17.3535-15.4492 15.5469-16.2305Q13.7402-17.0117 11.6992-17.0117Q9.6582-17.0117 7.85645-16.2305Q6.05469-15.4492 4.68262-14.0723Q3.31055-12.6953 2.5293-10.8936Q1.74805-9.0918 1.74805-7.05078Q1.74805-5.00977 2.5293-3.20801Q3.31055-1.40625 4.6875-0.0292969Q6.06445 1.34766 7.86621 2.12891Q9.66797 2.91016 11.709 2.91016ZM11.709 1.25Q9.98047 1.25 8.47656 0.605469Q6.97266-0.0390625 5.83496-1.17676Q4.69727-2.31445 4.05762-3.81836Q3.41797-5.32227 3.41797-7.05078Q3.41797-8.7793 4.05762-10.2832Q4.69727-11.7871 5.83008-12.9297Q6.96289-14.0723 8.4668-14.7119Q9.9707-15.3516 11.6992-15.3516Q13.4277-15.3516 14.9316-14.7119Q16.4355-14.0723 17.5781-12.9297Q18.7207-11.7871 19.3652-10.2832Q20.0098-8.7793 20.0098-7.05078Q20.0098-5.32227 19.3701-3.81836Q18.7305-2.31445 17.5928-1.17676Q16.4551-0.0390625 14.9463 0.605469Q13.4375 1.25 11.709 1.25ZM7.17773-7.05078Q7.17773-6.69922 7.41211-6.47461Q7.64648-6.25 8.01758-6.25L10.8887-6.25L10.8887-3.36914Q10.8887-2.99805 11.1133-2.76855Q11.3379-2.53906 11.6895-2.53906Q12.0605-2.53906 12.29-2.76855Q12.5195-2.99805 12.5195-3.36914L12.5195-6.25L15.4004-6.25Q15.7715-6.25 16.001-6.47461Q16.2305-6.69922 16.2305-7.05078Q16.2305-7.42188 16.001-7.65137Q15.7715-7.88086 15.4004-7.88086L12.5195-7.88086L12.5195-10.752Q12.5195-11.1328 12.29-11.3623Q12.0605-11.5918 11.6895-11.5918Q11.3379-11.5918 11.1133-11.3574Q10.8887-11.123 10.8887-10.752L10.8887-7.88086L8.01758-7.88086Q7.63672-7.88086 7.40723-7.65137Q7.17773-7.42188 7.17773-7.05078Z"/>
  </g>
  <g transform="matrix(1 0 0 1 305.646 1933)">
   <path d="M14.9707 5.66406Q17.0605 5.66406 18.96 5.01465Q20.8594 4.36523 22.4512 3.19336Q24.043 2.02148 25.2197 0.429688Q26.3965-1.16211 27.0459-3.06641Q27.6953-4.9707 27.6953-7.05078Q27.6953-9.14062 27.0459-11.04Q26.3965-12.9395 25.2197-14.5312Q24.043-16.123 22.4512-17.2998Q20.8594-18.4766 18.9551-19.126Q17.0508-19.7754 14.9609-19.7754Q12.8711-19.7754 10.9717-19.126Q9.07227-18.4766 7.48535-17.2998Q5.89844-16.123 4.72168-14.5312Q3.54492-12.9395 2.90039-11.04Q2.25586-9.14062 2.25586-7.05078Q2.25586-4.9707 2.90527-3.06641Q3.55469-1.16211 4.72656 0.429688Q5.89844 2.02148 7.49023 3.19336Q9.08203 4.36523 10.9814 5.01465Q12.8809 5.66406 14.9707 5.66406ZM14.9707 3.84766Q13.1641 3.84766 11.5283 3.2959Q9.89258 2.74414 8.53516 1.74805Q7.17773 0.751953 6.17676-0.610352Q5.17578-1.97266 4.62891-3.6084Q4.08203-5.24414 4.08203-7.05078Q4.08203-8.86719 4.62891-10.5029Q5.17578-12.1387 6.17188-13.501Q7.16797-14.8633 8.52539-15.8594Q9.88281-16.8555 11.5186-17.4023Q13.1543-17.9492 14.9609-17.9492Q16.7773-17.9492 18.4131-17.4023Q20.0488-16.8555 21.4111-15.8594Q22.7734-14.8633 23.7695-13.501Q24.7656-12.1387 25.3174-10.5029Q25.8691-8.86719 25.8691-7.05078Q25.8789-5.24414 25.332-3.6084Q24.7852-1.97266 23.7842-0.610352Q22.7832 0.751953 21.4209 1.74805Q20.0586 2.74414 18.4229 3.2959Q16.7871 3.84766 14.9707 3.84766ZM9.19922-7.05078Q9.19922-6.66992 9.45801-6.4209Q9.7168-6.17188 10.1172-6.17188L14.0625-6.17188L14.0625-2.2168Q14.0625-1.81641 14.3115-1.55762Q14.5605-1.29883 14.9512-1.29883Q15.3516-1.29883 15.6104-1.55273Q15.8691-1.80664 15.8691-2.2168L15.8691-6.17188L19.8242-6.17188Q20.2246-6.17188 20.4785-6.4209Q20.7324-6.66992 20.7324-7.05078Q20.7324-7.46094 20.4785-7.71484Q20.2246-7.96875 19.8242-7.96875L15.8691-7.96875L15.8691-11.9141Q15.8691-12.3242 15.6104-12.583Q15.3516-12.8418 14.9512-12.8418Q14.5605-12.8418 14.3115-12.583Q14.0625-12.3242 14.0625-11.9141L14.0625-7.96875L10.1172-7.96875Q9.70703-7.96875 9.45312-7.71484Q9.19922-7.46094 9.19922-7.05078Z"/>
  </g>
  <text style="stroke:none;fill:black;font-family:sans-serif;font-size:13;font-weight:bold;" transform="matrix(1 0 0 1 263 1953)">Design Variations</text>
  <text style="stroke:none;fill:black;font-family:sans-serif;font-size:13;" transform="matrix(1 0 0 1 263 1971)">Symbols are supported in up to nine weights and three scales.</text>
  <text style="stroke:none;fill:black;font-family:sans-serif;font-size:13;" transform="matrix(1 0 0 1 263 1989)">For optimal layout with text and other symbols, vertically align</text>
  <text style="stroke:none;fill:black;font-family:sans-serif;font-size:13;" transform="matrix(1 0 0 1 263 2007)">symbols with the adjacent text.</text>
  <line style="fill:none;stroke:#00AEEF;stroke-width:0.5;opacity:1.0;" x1="776" x2="776" y1="1919" y2="1933"/>
  <g transform="matrix(1 0 0 1 776 1933)">
   <path d="M3.31055 0.15625Q3.70117 0.15625 3.91602-0.00976562Q4.13086-0.175781 4.26758-0.585938L5.52734-4.0332L11.2891-4.0332L12.5488-0.585938Q12.6855-0.175781 12.9004-0.00976562Q13.1152 0.15625 13.4961 0.15625Q13.8867 0.15625 14.1162-0.0585938Q14.3457-0.273438 14.3457-0.644531Q14.3457-0.869141 14.2383-1.17188L9.6582-13.3691Q9.48242-13.8184 9.17969-14.043Q8.87695-14.2676 8.4082-14.2676Q7.5-14.2676 7.17773-13.3789L2.59766-1.16211Q2.49023-0.859375 2.49023-0.634766Q2.49023-0.263672 2.70996-0.0537109Q2.92969 0.15625 3.31055 0.15625ZM6.00586-5.51758L8.37891-12.0898L8.42773-12.0898L10.8008-5.51758Z"/>
  </g>
  <line style="fill:none;stroke:#00AEEF;stroke-width:0.5;opacity:1.0;" x1="793.197" x2="793.197" y1="1919" y2="1933"/>
  <text style="stroke:none;fill:black;font-family:sans-serif;font-size:13;font-weight:bold;" transform="matrix(1 0 0 1 776 1953)">Margins</text>
  <text style="stroke:none;fill:black;font-family:sans-serif;font-size:13;" transform="matrix(1 0 0 1 776 1971)">Leading and trailing margins on the left and right side of each symbol</text>
  <text style="stroke:none;fill:black;font-family:sans-serif;font-size:13;" transform="matrix(1 0 0 1 776 1989)">can be adjusted by modifying the x-location of the margin guidelines.</text>
  <text style="stroke:none;fill:black;font-family:sans-serif;font-size:13;" transform="matrix(1 0 0 1 776 2007)">Modifications are automatically applied proportionally to all</text>
  <text style="stroke:none;fill:black;font-family:sans-serif;font-size:13;" transform="matrix(1 0 0 1 776 2025)">scales and weights.</text>
  <g transform="matrix(1 0 0 1 1289 1933)">
   <path d="M2.8418 1.86523L4.54102 3.57422Q5.18555 4.22852 5.90332 4.17969Q6.62109 4.13086 7.31445 3.35938L18.0078-8.42773L17.041-9.4043L6.42578 2.27539Q6.16211 2.57812 5.89355 2.61719Q5.625 2.65625 5.27344 2.30469L4.10156 1.14258Q3.75 0.791016 3.79395 0.522461Q3.83789 0.253906 4.14062-0.0195312L15.6152-10.8203L14.6387-11.7871L3.04688-0.898438Q2.30469-0.214844 2.25098 0.498047Q2.19727 1.21094 2.8418 1.86523ZM9.25781-16.3281Q8.94531-16.0254 8.90625-15.6348Q8.86719-15.2441 9.04297-14.9512Q9.21875-14.6777 9.55566-14.541Q9.89258-14.4043 10.3809-14.5215Q11.4746-14.7754 12.5977-14.7314Q13.7207-14.6875 14.7949-13.9844L14.209-12.5293Q13.9551-11.9043 14.0674-11.4404Q14.1797-10.9766 14.5801-10.5664L16.875-8.25195Q17.2363-7.88086 17.5781-7.82227Q17.9199-7.76367 18.3398-7.8418L19.4043-8.03711L20.0684-7.36328L20.0293-6.80664Q20-6.43555 20.1221-6.12305Q20.2441-5.81055 20.6055-5.44922L21.3672-4.70703Q21.7285-4.3457 22.1533-4.33105Q22.5781-4.31641 22.9297-4.66797L25.8398-7.58789Q26.1914-7.93945 26.1816-8.35449Q26.1719-8.76953 25.8105-9.13086L25.0391-9.89258Q24.6875-10.2539 24.3799-10.3857Q24.0723-10.5176 23.7109-10.4883L23.1348-10.4395L22.4902-11.0742L22.7344-12.1973Q22.832-12.6172 22.6953-12.9834Q22.5586-13.3496 22.1191-13.7891L19.9219-15.9766Q18.6719-17.2168 17.2607-17.8369Q15.8496-18.457 14.4189-18.4814Q12.9883-18.5059 11.665-17.959Q10.3418-17.4121 9.25781-16.3281ZM10.752-15.957Q11.6602-16.6211 12.7002-16.9043Q13.7402-17.1875 14.8047-17.085Q15.8691-16.9824 16.8701-16.5137Q17.8711-16.0449 18.7012-15.2051L21.1328-12.793Q21.3086-12.6172 21.3525-12.4512Q21.3965-12.2852 21.3379-12.0312L21.0156-10.5469L22.5195-9.0625L23.5059-9.12109Q23.6914-9.13086 23.7891-9.09668Q23.8867-9.0625 24.0332-8.91602L24.6094-8.33984L22.168-5.89844L21.5918-6.47461Q21.4453-6.62109 21.4062-6.71875Q21.3672-6.81641 21.377-7.01172L21.4453-7.98828L19.9512-9.47266L18.4277-9.21875Q18.1836-9.16992 18.042-9.2041Q17.9004-9.23828 17.7148-9.41406L15.7129-11.416Q15.5176-11.5918 15.4932-11.7529Q15.4688-11.9141 15.5859-12.1875L16.4648-14.2773Q15.293-15.3711 13.8281-15.791Q12.3633-16.2109 10.8398-15.7617Q10.7227-15.7324 10.6885-15.8057Q10.6543-15.8789 10.752-15.957Z"/>
  </g>
  <text style="stroke:none;fill:black;font-family:sans-serif;font-size:13;font-weight:bold;" transform="matrix(1 0 0 1 1289 1953)">Exporting</text>
  <text style="stroke:none;fill:black;font-family:sans-serif;font-size:13;" transform="matrix(1 0 0 1 1289 1971)">Symbols should be outlined when exporting to ensure the</text>
  <text style="stroke:none;fill:black;font-family:sans-serif;font-size:13;" transform="matrix(1 0 0 1 1289 1989)">design is preserved when submitting to Xcode.</text>
  <text id="template-version" style="stroke:none;fill:black;font-family:sans-serif;font-size:13;text-anchor:end;" transform="matrix(1 0 0 1 3036 1933)">Template v.3.0</text>
  <text style="stroke:none;fill:black;font-family:sans-serif;font-size:13;text-anchor:end;" transform="matrix(1 0 0 1 3036 1951)">Requires Xcode 13 or greater</text>
  <text id="descriptive-name" style="stroke:none;fill:black;font-family:sans-serif;font-size:13;text-anchor:end;" transform="matrix(1 0 0 1 3036 1969)">Generated from person.3</text>
  <text style="stroke:none;fill:black;font-family:sans-serif;font-size:13;text-anchor:end;" transform="matrix(1 0 0 1 3036 1987)">Typeset at 100 points</text>
  <text style="stroke:none;fill:black;font-family:sans-serif;font-size:13;" transform="matrix(1 0 0 1 263 726)">Small</text>
  <text style="stroke:none;fill:black;font-family:sans-serif;font-size:13;" transform="matrix(1 0 0 1 263 1156)">Medium</text>
  <text style="stroke:none;fill:black;font-family:sans-serif;font-size:13;" transform="matrix(1 0 0 1 263 1586)">Large</text>
 </g>
 <g id="Guides">
  <g id="H-reference" style="fill:#27AAE1;stroke:none;" transform="matrix(1 0 0 1 339 696)">
   <path d="M0.993347 0L3.6377 0L29.3282-67.1326L30.0301-67.1326L30.0301-70.459L28.1227-70.459ZM11.6882-24.4797L46.9818-24.4797L46.2311-26.7288L12.4382-26.7288ZM55.1193 0L57.7637 0L30.6381-70.459L29.4327-70.459L29.4327-67.1326Z"/>
  </g>
  <line id="Baseline-S" style="fill:none;stroke:#27AAE1;opacity:1;stroke-width:0.5;" x1="263" x2="3036" y1="696" y2="696"/>
  <line id="Capline-S" style="fill:none;stroke:#27AAE1;opacity:1;stroke-width:0.5;" x1="263" x2="3036" y1="625.541" y2="625.541"/>
  <g id="H-reference" style="fill:#27AAE1;stroke:none;" transform="matrix(1 0 0 1 339 1126)">
   <path d="M0.993347 0L3.6377 0L29.3282-67.1326L30.0301-67.1326L30.0301-70.459L28.1227-70.459ZM11.6882-24.4797L46.9818-24.4797L46.2311-26.7288L12.4382-26.7288ZM55.1193 0L57.7637 0L30.6381-70.459L29.4327-70.459L29.4327-67.1326Z"/>
  </g>
  <line id="Baseline-M" style="fill:none;stroke:#27AAE1;opacity:1;stroke-width:0.5;" x1="263" x2="3036" y1="1126" y2="1126"/>
  <line id="Capline-M" style="fill:none;stroke:#27AAE1;opacity:1;stroke-width:0.5;" x1="263" x2="3036" y1="1055.54" y2="1055.54"/>
  <g id="H-reference" style="fill:#27AAE1;stroke:none;" transform="matrix(1 0 0 1 339 1556)">
   <path d="M0.993347 0L3.6377 0L29.3282-67.1326L30.0301-67.1326L30.0301-70.459L28.1227-70.459ZM11.6882-24.4797L46.9818-24.4797L46.2311-26.7288L12.4382-26.7288ZM55.1193 0L57.7637 0L30.6381-70.459L29.4327-70.459L29.4327-67.1326Z"/>
  </g>
  <line id="Baseline-L" style="fill:none;stroke:#27AAE1;opacity:1;stroke-width:0.5;" x1="263" x2="3036" y1="1556" y2="1556"/>
  <line id="Capline-L" style="fill:none;stroke:#27AAE1;opacity:1;stroke-width:0.5;" x1="263" x2="3036" y1="1485.54" y2="1485.54"/>
  <line id="left-margin-Ultralight-S" style="fill:none;stroke:#00AEEF;stroke-width:0.5;opacity:1.0;" x1="477.807" x2="477.807" y1="600.785" y2="720.121"/>
  <line id="right-margin-Ultralight-S" style="fill:none;stroke:#00AEEF;stroke-width:0.5;opacity:1.0;" x1="641.615" x2="641.615" y1="600.785" y2="720.121"/>
  <line id="left-margin-Regular-S" style="fill:none;stroke:#00AEEF;stroke-width:0.5;opacity:1.0;" x1="1366.71" x2="1366.71" y1="600.785" y2="720.121"/>
  <line id="right-margin-Regular-S" style="fill:none;stroke:#00AEEF;stroke-width:0.5;opacity:1.0;" x1="1532.97" x2="1532.97" y1="600.785" y2="720.121"/>
  <line id="left-margin-Black-S" style="fill:none;stroke:#00AEEF;stroke-width:0.5;opacity:1.0;" x1="2847.63" x2="2847.63" y1="600.785" y2="720.121"/>
  <line id="right-margin-Black-S" style="fill:none;stroke:#00AEEF;stroke-width:0.5;opacity:1.0;" x1="3019.17" x2="3019.17" y1="600.785" y2="720.121"/>
 </g>
 <g id="Symbols">
  <g id="Black-S" transform="matrix(1 0 0 1 2847.63 696)">
   <path class="hierarchical-0:primary SFSymbolsPreview212121" d="M62.793 2.63672L108.789 2.63672Q120.459 2.63672 120.459-6.15234Q120.459-10.9375 117.798-15.332Q115.137-19.7266 110.4-23.1689Q105.664-26.6113 99.3652-28.6377Q93.0664-30.6641 85.791-30.6641Q78.5156-30.6641 72.2168-28.6377Q65.918-26.6113 61.1816-23.1689Q56.4453-19.7266 53.7842-15.332Q51.123-10.9375 51.123-6.15234Q51.123 2.63672 62.793 2.63672ZM85.791-33.7402Q90.7715-33.7402 94.7998-36.3037Q98.8281-38.8672 101.196-43.2129Q103.564-47.5586 103.564-52.8809Q103.564-58.0566 101.147-62.3291Q98.7305-66.6016 94.7021-69.1895Q90.6738-71.7773 85.791-71.7773Q80.9082-71.7773 76.8555-69.1895Q72.8027-66.6016 70.4102-62.3291Q68.0176-58.0566 68.0176-52.8809Q68.0664-47.5586 70.4102-43.2129Q72.7539-38.8672 76.7822-36.3037Q80.8105-33.7402 85.791-33.7402ZM64.4043-8.10547Q64.0625-8.10547 63.9404-8.3252Q63.8184-8.54492 63.8184-8.74023Q63.8184-10.1562 65.332-12.0605Q66.8457-13.9648 69.6777-15.7715Q72.5098-17.5781 76.5869-18.75Q80.6641-19.9219 85.791-19.9219Q90.918-19.9219 94.9951-18.75Q99.0723-17.5781 101.904-15.7715Q104.736-13.9648 106.25-12.0605Q107.764-10.1562 107.764-8.74023Q107.764-8.54492 107.666-8.3252Q107.568-8.10547 107.178-8.10547ZM85.791-44.4824Q83.8867-44.4824 82.2754-45.5566Q80.6641-46.6309 79.7119-48.5596Q78.7598-50.4883 78.7598-52.9297Q78.7598-55.1758 79.7363-57.0068Q80.7129-58.8379 82.3242-59.9365Q83.9355-61.0352 85.791-61.0352Q87.6953-61.0352 89.2822-59.9365Q90.8691-58.8379 91.8457-56.9824Q92.8223-55.127 92.8223-52.8809Q92.8223-50.4883 91.8701-48.584Q90.918-46.6797 89.3311-45.5811Q87.7441-44.4824 85.791-44.4824Z"/>
   <path class="hierarchical-1:secondary SFSymbolsPreview4D4D4D" d="M131.396-32.9102Q135.791-32.9102 139.331-35.1562Q142.871-37.4023 144.971-41.2354Q147.07-45.0684 147.07-49.8047Q147.119-54.3457 144.971-58.1299Q142.822-61.9141 139.258-64.1846Q135.693-66.4551 131.396-66.4551Q127.148-66.4551 123.584-64.1846Q120.02-61.9141 117.871-58.1299Q115.723-54.3457 115.723-49.8047Q115.723-45.1172 117.822-41.2842Q119.922-37.4512 123.486-35.1807Q127.051-32.9102 131.396-32.9102ZM40.1367-32.9102Q44.5312-32.9102 48.0713-35.1807Q51.6113-37.4512 53.7109-41.2842Q55.8105-45.1172 55.8105-49.8047Q55.8105-54.3457 53.6621-58.1299Q51.5137-61.9141 47.9736-64.1846Q44.4336-66.4551 40.1367-66.4551Q35.8398-66.4551 32.2754-64.1846Q28.7109-61.9141 26.5869-58.1299Q24.4629-54.3457 24.4629-49.8047Q24.5117-45.0684 26.5869-41.2354Q28.6621-37.4023 32.2266-35.1562Q35.791-32.9102 40.1367-32.9102ZM20.1172 2.68555L48.4375 2.68555Q45.9961 1.12305 44.9219-2.05078Q43.8477-5.22461 44.0918-7.91016L22.4121-7.91016Q22.0703-7.91016 21.9482-8.10547Q21.8262-8.30078 21.8262-8.49609Q21.8262-11.2305 24.2188-13.916Q26.6113-16.6016 30.7617-18.3594Q34.9121-20.1172 40.1367-20.1172Q41.5527-20.1172 44.043-19.7266Q46.5332-19.3359 47.6562-19.043Q48.8281-21.582 50.7568-23.6572Q52.6855-25.7324 55.5176-27.3926Q52.2461-28.8086 47.8271-29.7119Q43.4082-30.6152 40.1367-30.6152Q33.8379-30.6152 28.3203-28.6865Q22.8027-26.7578 18.6279-23.3887Q14.4531-20.0195 12.1094-15.7227Q9.76562-11.4258 9.76562-6.68945Q9.76562-2.24609 12.3535 0.219727Q14.9414 2.68555 20.1172 2.68555ZM151.416 2.68555Q156.641 2.68555 159.204 0.219727Q161.768-2.24609 161.768-6.68945Q161.768-11.4258 159.424-15.7227Q157.08-20.0195 152.905-23.3887Q148.73-26.7578 143.213-28.6865Q137.695-30.6152 131.396-30.6152Q128.125-30.6152 123.73-29.7119Q119.336-28.8086 116.016-27.3926Q118.896-25.7324 120.801-23.6572Q122.705-21.582 123.877-19.043Q125-19.3359 127.515-19.7266Q130.029-20.1172 131.396-20.1172Q136.621-20.1172 140.771-18.3594Q144.922-16.6016 147.314-13.916Q149.707-11.2305 149.707-8.49609Q149.707-8.30078 149.609-8.10547Q149.512-7.91016 149.121-7.91016L127.441-7.91016Q127.686-5.22461 126.611-2.05078Q125.537 1.12305 123.096 2.68555ZM131.396-43.457Q129.297-43.457 127.783-45.2393Q126.27-47.0215 126.27-49.8047Q126.27-51.4648 127.002-52.8564Q127.734-54.248 128.906-55.0781Q130.078-55.9082 131.396-55.9082Q132.764-55.9082 133.936-55.0781Q135.107-54.248 135.84-52.8564Q136.572-51.4648 136.523-49.8047Q136.523-47.0215 135.01-45.2393Q133.496-43.457 131.396-43.457ZM40.1367-43.457Q38.0371-43.457 36.5234-45.2393Q35.0098-47.0215 35.0098-49.8047Q35.0098-51.4648 35.7178-52.8564Q36.4258-54.248 37.6221-55.0781Q38.8184-55.9082 40.1367-55.9082Q41.4551-55.9082 42.627-55.0781Q43.7988-54.248 44.5312-52.8564Q45.2637-51.4648 45.2637-49.8047Q45.2637-47.0215 43.7744-45.2393Q42.2852-43.457 40.1367-43.457Z"/>
  </g>
  <g id="Regular-S" transform="matrix(1 0 0 1 1366.71 696)">
   <path class="hierarchical-0:primary SFSymbolsPreview212121" d="M59.4727 1.12305L106.738 1.12305Q116.797 1.12305 116.797-5.27344Q116.797-9.0332 114.502-13.3301Q112.207-17.627 107.837-21.4111Q103.467-25.1953 97.2168-27.6123Q90.9668-30.0293 83.1055-30.0293Q75.2441-30.0293 69.0186-27.6123Q62.793-25.1953 58.3984-21.4111Q54.0039-17.627 51.709-13.3301Q49.4141-9.0332 49.4141-5.27344Q49.4141 1.12305 59.4727 1.12305ZM83.1055-35.1562Q87.6953-35.1562 91.5283-37.6221Q95.3613-40.0879 97.6318-44.2383Q99.9023-48.3887 99.9023-53.3203Q99.9023-58.3008 97.6562-62.3047Q95.4102-66.3086 91.6016-68.6523Q87.793-70.9961 83.1055-70.9961Q78.5156-70.9961 74.6826-68.6035Q70.8496-66.2109 68.5791-62.1826Q66.3086-58.1543 66.3086-53.2227Q66.3086-48.291 68.6035-44.1895Q70.8984-40.0879 74.707-37.6221Q78.5156-35.1562 83.1055-35.1562ZM57.2754-5.46875Q56.8848-5.46875 56.665-5.61523Q56.4453-5.76172 56.4453-6.15234Q56.4453-8.30078 58.1787-11.2305Q59.9121-14.1602 63.3057-16.9434Q66.6992-19.7266 71.6553-21.582Q76.6113-23.4375 83.1055-23.4375Q89.5996-23.4375 94.5557-21.582Q99.5117-19.7266 102.905-16.9434Q106.299-14.1602 108.032-11.2305Q109.766-8.30078 109.766-6.15234Q109.766-5.76172 109.57-5.61523Q109.375-5.46875 108.936-5.46875ZM83.1055-41.748Q80.5176-41.748 78.2959-43.2861Q76.0742-44.8242 74.707-47.4365Q73.3398-50.0488 73.3398-53.2227Q73.3398-56.4453 74.6826-58.96Q76.0254-61.4746 78.2471-62.9395Q80.4688-64.4043 83.1055-64.4043Q85.791-64.4043 88.0127-62.9639Q90.2344-61.5234 91.5527-59.0332Q92.8711-56.543 92.8711-53.3203Q92.8711-50.1465 91.5283-47.5098Q90.1855-44.873 87.9639-43.3105Q85.7422-41.748 83.1055-41.748Z"/>
   <path class="hierarchical-1:secondary SFSymbolsPreview4D4D4D" d="M127.197-34.2773Q131.201-34.2773 134.497-36.4258Q137.793-38.5742 139.795-42.1875Q141.797-45.8008 141.797-50.1953Q141.797-54.4434 139.819-57.9834Q137.842-61.5234 134.521-63.6475Q131.201-65.7715 127.197-65.7715Q123.145-65.7715 119.849-63.6963Q116.553-61.6211 114.6-58.1055Q112.646-54.5898 112.646-50.2441Q112.646-45.8984 114.624-42.2607Q116.602-38.623 119.922-36.4502Q123.242-34.2773 127.197-34.2773ZM39.0625-34.2773Q43.0176-34.2773 46.3379-36.4502Q49.6582-38.623 51.6357-42.2607Q53.6133-45.8984 53.6133-50.2441Q53.6133-54.5898 51.6602-58.1055Q49.707-61.6211 46.4111-63.6963Q43.1152-65.7715 39.0625-65.7715Q35.0586-65.7715 31.7383-63.6475Q28.418-61.5234 26.4404-57.9834Q24.4629-54.4434 24.4629-50.1953Q24.4629-45.8008 26.4648-42.1875Q28.4668-38.5742 31.7627-36.4258Q35.0586-34.2773 39.0625-34.2773ZM18.0664 1.12305L47.168 1.12305Q45.6055 0.244141 44.6289-1.53809Q43.6523-3.32031 43.9453-5.32227L16.8945-5.32227Q16.6016-5.32227 16.4307-5.46875Q16.2598-5.61523 16.2598-5.95703Q16.2598-10.4492 19.4092-14.502Q22.5586-18.5547 27.7588-21.0938Q32.959-23.6328 39.0137-23.6328Q42.2852-23.6328 45.1904-22.9492Q48.0957-22.2656 50.7324-20.9473Q51.7578-22.2168 52.9785-23.3887Q54.1992-24.5605 55.6641-25.5859Q52.002-27.832 47.7783-28.9551Q43.5547-30.0781 39.0137-30.0781Q33.1055-30.0781 27.832-28.1006Q22.5586-26.123 18.4814-22.7051Q14.4043-19.2871 12.085-14.8438Q9.76562-10.4004 9.76562-5.51758Q9.76562-2.19727 11.8408-0.537109Q13.916 1.12305 18.0664 1.12305ZM148.193 1.12305Q152.344 1.12305 154.419-0.537109Q156.494-2.19727 156.494-5.51758Q156.494-10.4004 154.175-14.8438Q151.855-19.2871 147.778-22.7051Q143.701-26.123 138.428-28.1006Q133.154-30.0781 127.246-30.0781Q122.705-30.0781 118.481-28.9551Q114.258-27.832 110.596-25.5859Q112.061-24.5605 113.281-23.3887Q114.502-22.2168 115.527-20.9473Q118.164-22.2656 121.069-22.9492Q123.975-23.6328 127.246-23.6328Q133.301-23.6328 138.501-21.0938Q143.701-18.5547 146.851-14.502Q150-10.4492 150-5.95703Q150-5.61523 149.829-5.46875Q149.658-5.32227 149.365-5.32227L122.314-5.32227Q122.607-3.32031 121.631-1.53809Q120.654 0.244141 119.092 1.12305ZM127.197-40.7715Q123.926-40.7715 121.509-43.5547Q119.092-46.3379 119.092-50.2441Q119.092-52.7832 120.166-54.834Q121.24-56.8848 123.096-58.0811Q124.951-59.2773 127.197-59.2773Q129.395-59.2773 131.25-58.0566Q133.105-56.8359 134.204-54.7852Q135.303-52.7344 135.303-50.1953Q135.303-46.2891 132.886-43.5303Q130.469-40.7715 127.197-40.7715ZM39.0625-40.7715Q35.791-40.7715 33.374-43.5303Q30.957-46.2891 30.957-50.1953Q30.957-52.7344 32.0557-54.7852Q33.1543-56.8359 35.0098-58.0566Q36.8652-59.2773 39.0625-59.2773Q41.3086-59.2773 43.1641-58.0811Q45.0195-56.8848 46.0938-54.834Q47.168-52.7832 47.168-50.2441Q47.168-46.3379 44.751-43.5547Q42.334-40.7715 39.0625-40.7715Z"/>
  </g>
  <g id="Ultralight-S" transform="matrix(1 0 0 1 477.807 696)">
   <path class="hierarchical-0:primary SFSymbolsPreview212121" d="M55.9082-0.488281L107.666-0.488281Q113.965-0.488281 113.965-5.32227Q113.965-9.0332 111.743-13.1348Q109.521-17.2363 105.322-20.8252Q101.123-24.4141 95.1904-26.6602Q89.2578-28.9062 81.7871-28.9062Q74.3652-28.9062 68.4326-26.6602Q62.5-24.4141 58.3008-20.8252Q54.1016-17.2363 51.8799-13.1348Q49.6582-9.0332 49.6582-5.32227Q49.6582-0.488281 55.9082-0.488281ZM81.8848-34.9609Q86.1816-34.9609 89.6484-37.207Q93.1152-39.4531 95.1416-43.2861Q97.168-47.1191 97.168-51.9043Q97.168-56.4941 95.1172-60.2783Q93.0664-64.0625 89.5996-66.3086Q86.1328-68.5547 81.8848-68.5547Q77.6855-68.5547 74.1943-66.2842Q70.7031-64.0137 68.6523-60.2539Q66.6016-56.4941 66.6504-51.9043Q66.6504-47.1191 68.6768-43.2861Q70.7031-39.4531 74.1455-37.207Q77.5879-34.9609 81.8848-34.9609ZM55.8105-2.68555Q53.5645-2.68555 52.71-3.2959Q51.8555-3.90625 51.8555-5.37109Q51.8555-8.69141 53.8818-12.4268Q55.9082-16.1621 59.79-19.4092Q63.6719-22.6562 69.2139-24.707Q74.7559-26.7578 81.7871-26.7578Q88.8184-26.7578 94.3848-24.707Q99.9512-22.6562 103.833-19.4092Q107.715-16.1621 109.741-12.4268Q111.768-8.69141 111.768-5.37109Q111.768-3.90625 110.913-3.2959Q110.059-2.68555 107.764-2.68555ZM81.8848-37.1582Q78.2227-37.1582 75.2686-39.1113Q72.3145-41.0645 70.5811-44.4092Q68.8477-47.7539 68.8477-51.9043Q68.7988-55.8594 70.5566-59.1553Q72.3145-62.4512 75.293-64.4043Q78.2715-66.3574 81.8848-66.3574Q85.4492-66.3574 88.4277-64.4043Q91.4062-62.4512 93.1885-59.1797Q94.9707-55.9082 94.9707-51.9043Q94.9707-47.7539 93.2373-44.4092Q91.5039-41.0645 88.5254-39.1113Q85.5469-37.1582 81.8848-37.1582Z"/>
   <path class="hierarchical-1:secondary SFSymbolsPreview4D4D4D" d="M125.928-34.1309Q129.688-34.1309 132.69-36.084Q135.693-38.0371 137.451-41.3818Q139.209-44.7266 139.258-48.9258Q139.258-52.8809 137.476-56.1768Q135.693-59.4727 132.642-61.4746Q129.59-63.4766 125.928-63.4766Q122.266-63.4766 119.238-61.4746Q116.211-59.4727 114.404-56.2012Q112.598-52.9297 112.598-48.9258Q112.598-44.7266 114.355-41.3818Q116.113-38.0371 119.116-36.084Q122.119-34.1309 125.928-34.1309ZM37.8418-34.1309Q41.6016-34.1309 44.6289-36.084Q47.6562-38.0371 49.4385-41.3818Q51.2207-44.7266 51.2207-48.9258Q51.2207-52.9297 49.3896-56.2012Q47.5586-59.4727 44.5312-61.4746Q41.5039-63.4766 37.8418-63.4766Q34.1797-63.4766 31.1279-61.4746Q28.0762-59.4727 26.2939-56.1768Q24.5117-52.8809 24.5605-48.9258Q24.6094-44.7266 26.3672-41.3818Q28.125-38.0371 31.1035-36.084Q34.082-34.1309 37.8418-34.1309ZM15.2832-0.488281L49.4141-0.488281Q48.877-0.78125 48.3398-1.34277Q47.8027-1.9043 47.5098-2.63672L15.2832-2.63672Q13.4277-2.63672 12.6953-3.32031Q11.9629-4.00391 11.9629-5.61523Q11.9629-11.4258 15.4785-16.2598Q18.9941-21.0938 24.8535-24.0234Q30.7129-26.9531 37.7441-26.9531Q43.0176-26.9531 47.6074-25.415Q52.1973-23.877 55.6641-20.8008Q56.1035-21.1914 56.5186-21.5332Q56.9336-21.875 57.3242-22.2168Q53.3691-25.5859 48.3643-27.3438Q43.3594-29.1016 37.7441-29.1016Q31.3477-29.1016 26.1719-27.002Q20.9961-24.9023 17.334-21.4844Q13.6719-18.0664 11.7188-13.916Q9.76562-9.76562 9.76562-5.61523Q9.76562-3.02734 11.1328-1.75781Q12.5-0.488281 15.2832-0.488281ZM148.486-0.488281Q151.27-0.488281 152.637-1.75781Q154.004-3.02734 154.004-5.61523Q154.004-9.76562 152.051-13.916Q150.098-18.0664 146.436-21.4844Q142.773-24.9023 137.622-27.002Q132.471-29.1016 126.025-29.1016Q120.41-29.1016 115.43-27.3438Q110.449-25.5859 106.445-22.2168Q106.885-21.875 107.275-21.5332Q107.666-21.1914 108.057-20.8008Q111.621-23.877 116.211-25.415Q120.801-26.9531 126.025-26.9531Q133.057-26.9531 138.916-24.0234Q144.775-21.0938 148.315-16.2598Q151.855-11.4258 151.855-5.61523Q151.855-4.00391 151.099-3.32031Q150.342-2.63672 148.535-2.63672L116.309-2.63672Q116.016-1.9043 115.454-1.34277Q114.893-0.78125 114.355-0.488281ZM125.928-36.3281Q121.191-36.3281 117.969-39.917Q114.746-43.5059 114.746-48.9258Q114.746-52.3438 116.26-55.127Q117.773-57.9102 120.312-59.5947Q122.852-61.2793 125.928-61.2793Q129.004-61.2793 131.519-59.5703Q134.033-57.8613 135.547-55.0781Q137.061-52.2949 137.061-48.9258Q137.061-43.5059 133.838-39.917Q130.615-36.3281 125.928-36.3281ZM37.8418-36.3281Q33.1055-36.3281 29.9316-39.917Q26.7578-43.5059 26.7578-48.9258Q26.7578-52.2949 28.2471-55.0781Q29.7363-57.8613 32.251-59.5703Q34.7656-61.2793 37.8418-61.2793Q40.918-61.2793 43.457-59.5947Q45.9961-57.9102 47.5098-55.127Q49.0234-52.3438 49.0234-48.9258Q49.0234-43.5059 45.8008-39.917Q42.5781-36.3281 37.8418-36.3281Z"/>
  </g>
 </g>
</svg>
